<svg width="14" height="28" viewBox="0 0 14 28" fill="none" xmlns="http://www.w3.org/2000/svg">
<path d="M0.640253 0.838405L0.640312 0.838458L0.637507 0.841297C0.187235 1.29699 0.187235 2.09967 0.637507 2.55536L0.637564 2.55531L0.640253 2.55825L11.0163 13.9326L11.0778 14L11.0163 14.0674L0.640256 25.4418C0.184855 25.9411 0.188699 26.7045 0.637507 27.1588L0.637565 27.1587L0.640266 27.1617C1.05165 27.6128 1.73502 27.6128 2.14661 27.1616L13.3876 14.8392L13.4614 14.9066L13.3876 14.8392C13.5567 14.6538 13.6633 14.3891 13.6998 14.0766V13.9646C13.6629 13.6479 13.5548 13.3442 13.3876 13.1609L2.14661 0.838405L2.14659 0.83839C1.7352 0.387244 1.05184 0.387223 0.640253 0.838405Z" fill="#66A38B" stroke="white" stroke-width="0.2"/>
</svg>
