<svg width="14" height="28" viewBox="0 0 14 28" fill="none" xmlns="http://www.w3.org/2000/svg">
<path d="M13.3597 27.1616L13.3597 27.1615L13.3625 27.1587C13.8128 26.703 13.8128 25.9003 13.3625 25.4446L13.3624 25.4447L13.3597 25.4417L2.98369 14.0674L2.92221 14L2.98369 13.9326L13.3597 2.55821C13.8151 2.05894 13.8113 1.29546 13.3625 0.841246L13.3624 0.841303L13.3597 0.838339C12.9483 0.387194 12.265 0.387173 11.8534 0.838354L0.612441 13.1608L0.538563 13.0934L0.61244 13.1608C0.443306 13.3462 0.336688 13.6109 0.300195 13.9234V14.0354C0.337135 14.3521 0.445195 14.6558 0.612441 14.8391L11.8534 27.1616L11.8534 27.1616C12.2648 27.6128 12.9482 27.6128 13.3597 27.1616Z" fill="#66A38B" stroke="white" stroke-width="0.2"/>
</svg>
