<svg width="38" height="38" viewBox="0 0 38 38" fill="none" xmlns="http://www.w3.org/2000/svg">
<path fill-rule="evenodd" clip-rule="evenodd" d="M14.6657 0.646478C14.3223 0.619157 13.9797 0.740765 13.7293 0.986925L10.5171 4.14281L6.18054 5.34495L5.98554 5.41781C5.67455 5.56566 5.43857 5.84236 5.34482 6.18067L4.14269 10.5173L0.98683 13.7295L0.854241 13.8902C0.65897 14.1736 0.592812 14.5312 0.68094 14.8711L1.80757 19.2295L0.68094 23.5879L0.646386 23.793C0.619064 24.1364 0.740672 24.479 0.98683 24.7295L4.14269 27.9392L5.34482 32.2783L5.41768 32.4733C5.56553 32.7843 5.84223 33.0203 6.18053 33.114L10.5171 34.3137L13.7293 37.4721L13.89 37.6047C14.1734 37.8 14.531 37.8661 14.8709 37.778L19.2268 36.649L23.5875 37.778L23.7927 37.8125C24.1361 37.8399 24.4787 37.7183 24.7291 37.4721L27.9389 34.3137L32.2779 33.114L32.4729 33.0411C32.7839 32.8933 33.0198 32.6166 33.1136 32.2783L34.3133 27.9393L37.4716 24.7295L37.6042 24.5688C37.7995 24.2854 37.8657 23.9278 37.7775 23.5878L36.6485 19.2271L37.7775 14.8712L37.8121 14.666C37.8394 14.3226 37.7178 13.98 37.4716 13.7296L34.3133 10.5174L33.1136 6.18075L33.0407 5.98574C32.8929 5.67475 32.6162 5.43877 32.2779 5.34502L27.9389 4.14288L24.7291 0.986994L24.5684 0.854403C24.285 0.659131 23.9274 0.592972 23.5875 0.681101L19.2292 1.80774L14.8708 0.681101L14.6657 0.646478ZM23.5299 3.17349L26.4788 6.07176L26.6347 6.20086C26.7453 6.27774 26.8685 6.33587 26.9995 6.37203L30.982 7.47425L32.0866 11.4592L32.1568 11.6491C32.2141 11.7712 32.2918 11.8829 32.3869 11.9799L35.2826 14.9264L34.249 18.929L34.215 19.1285C34.2037 19.263 34.215 19.3985 34.249 19.5301L35.2826 23.5303L32.3869 26.4791L32.2578 26.635C32.1809 26.7457 32.1228 26.8689 32.0866 26.9999L30.982 30.9824L26.9995 32.087L26.8096 32.1572C26.6874 32.2145 26.5757 32.2922 26.4788 32.3873L23.5299 35.2831L19.5298 34.2494L19.3302 34.2154C19.1957 34.2042 19.0602 34.2154 18.9287 34.2494L14.9261 35.2831L11.9796 32.3873L11.8238 32.2582C11.7131 32.1813 11.5899 32.1232 11.4589 32.087L7.47404 30.9824L6.37183 26.9999L6.30165 26.8099C6.24433 26.6878 6.16665 26.5761 6.07156 26.4791L3.17332 23.5303L4.20937 19.5301L4.24338 19.3305C4.25463 19.196 4.24338 19.0605 4.20937 18.929L3.17332 14.9264L6.07156 11.9799L6.20067 11.824C6.27754 11.7134 6.33567 11.5902 6.37183 11.4592L7.47404 7.47425L11.4589 6.37203L11.6488 6.30185C11.771 6.24453 11.8827 6.16685 11.9796 6.07176L14.9261 3.17349L18.9287 4.20955C19.1258 4.26044 19.3326 4.26044 19.5297 4.20955L23.5299 3.17349Z" fill="#66A38B"/>
<path fill-rule="evenodd" clip-rule="evenodd" d="M27.0787 12.3812L28.778 14.0781L16.5284 26.3278L9.67871 19.4781L11.378 17.7812L16.5283 22.934L27.0787 12.3812Z" fill="#66A38B"/>
</svg>
