<svg width="45" height="45" viewBox="0 0 45 45" fill="none" xmlns="http://www.w3.org/2000/svg">
<path d="M33.7322 18.952L36.5201 18.8307C37.005 18.7094 37.4899 18.2247 37.4899 17.6186V14.2247H7.42925C6.82331 14.2247 6.33839 13.7398 6.33839 13.2549C6.33839 12.649 6.8233 12.1641 7.42925 12.1641H13.005L16.8838 10.346H5.73211C5.00491 10.346 4.3987 10.9519 4.3987 11.6794V37.3763C4.3987 38.1035 5.00464 38.7098 5.73211 38.7098H36.1566C36.8838 38.7098 37.49 38.1038 37.49 37.3763V31.4369C37.49 30.7097 36.8841 30.1035 36.1566 30.1035H32.0353C30.2173 30.1035 28.7625 28.649 28.7625 26.7097V22.2247C28.7625 19.1945 31.3082 18.952 33.7322 18.952ZM17.7321 12.164H31.0656L28.52 7.07319L17.7321 12.164ZM33.3683 12.164H37.4896V11.6791C37.4896 10.9519 36.8837 10.3457 36.1562 10.3457H32.3985L33.3683 12.164ZM31.429 8.2853H36.1562C37.9743 8.2853 39.429 9.86107 39.429 11.6791V17.6186C39.429 18.1035 39.429 18.4671 39.1867 18.952H39.9139C41.7319 18.952 43.3077 20.4064 43.3077 22.2248V26.7097C43.3077 28.5278 41.7319 30.1035 39.9139 30.1035H39.1867C39.429 30.4672 39.429 30.9521 39.429 31.437V37.3764C39.429 39.1945 37.9745 40.6492 36.1562 40.6492H5.73173C3.91366 40.6492 2.33789 39.1947 2.33789 37.3764V11.6795C2.33789 9.86139 3.91366 8.28562 5.73173 8.28562H21.1256L28.6406 4.77048C29.1255 4.52815 29.7314 4.77048 29.974 5.25538L31.429 8.2853ZM39.914 21.0126H32.0352C31.308 21.0126 30.8231 21.4975 30.8231 22.2247V26.7097C30.8231 27.4368 31.308 28.0431 32.0352 28.0431H39.914C40.6412 28.0431 41.2475 27.4371 41.2475 26.7097V22.2247C41.2475 21.4975 40.6415 21.0126 39.914 21.0126Z" fill="#66A38B"/>
<path fill-rule="evenodd" clip-rule="evenodd" d="M36.0344 24.5277C36.0344 25.3978 35.3287 26.1034 34.4586 26.1034C33.5882 26.1034 32.8828 25.3978 32.8828 24.5277C32.8828 23.6573 33.5882 22.9519 34.4586 22.9519C35.3287 22.9519 36.0344 23.6573 36.0344 24.5277Z" fill="#66A38B"/>
</svg>
