<svg width="47" height="48" viewBox="0 0 47 48" fill="none" xmlns="http://www.w3.org/2000/svg">
<path d="M33.8391 33.5622L29.5789 32.547V31.0205C29.5789 30.5012 29.158 30.0806 28.6389 30.0806C28.1199 30.0806 27.6989 30.5012 27.6989 31.0205V32.9006C26.6293 33.9922 25.1737 34.62 23.6457 34.6489C22.008 34.6924 20.4265 34.0519 19.2804 32.8817V29.8285C19.2793 29.4789 19.1657 29.1389 18.957 28.8586C18.0781 27.5759 17.5304 26.0956 17.3626 24.5497L17.3288 17.7514V17.7512C17.2527 16.0556 17.8719 14.4024 19.0432 13.1742C20.2148 11.9459 21.8367 11.2491 23.534 11.2452C25.2314 11.241 26.8567 11.93 28.0341 13.1524C29.2114 14.3752 29.8388 16.0251 29.7706 17.721V24.0456C29.7695 24.6165 29.5424 25.1639 29.1385 25.5678C28.7346 25.9717 28.1872 26.1989 27.6162 26.1999H26.4507C26.1533 25.3766 25.484 24.7427 24.646 24.4901C23.8078 24.2378 22.8995 24.3967 22.1971 24.9187C21.4944 25.4409 21.0803 26.2647 21.0803 27.1399C21.0803 28.0151 21.4944 28.8389 22.1971 29.3611C22.8995 29.8833 23.8077 30.0423 24.646 29.7897C25.4839 29.5374 26.1533 28.9032 26.4507 28.0799H27.6162C28.4122 28.0791 29.1901 27.8433 29.8524 27.4016C30.5147 26.9602 31.0316 26.3328 31.3385 25.5982C32.2961 26.1458 33.4726 26.143 34.4273 25.5909C35.3823 25.0385 35.9716 24.0203 35.9748 22.9175V17.6722C35.9672 14.3759 34.6505 11.2176 32.3144 8.89197C29.9783 6.56661 26.814 5.26417 23.5174 5.27176C20.2211 5.2791 17.063 6.59575 14.7371 8.93212C12.4115 11.2682 11.1093 14.4323 11.1166 17.7285V22.9174C11.1135 23.9982 11.6745 25.0022 12.5964 25.5664C13.5185 26.1303 14.6679 26.1722 15.6288 25.677C15.9076 27.1993 16.5116 28.6434 17.3997 29.911V32.5429L9.77095 34.3589C8.27621 34.7154 6.9966 35.6761 6.23755 37.0119C5.47824 38.3477 5.30776 39.9389 5.76651 41.4053C5.83444 41.6508 5.99914 41.858 6.22261 41.98C6.44633 42.1019 6.70966 42.1279 6.95279 42.0518C7.19592 41.976 7.39787 41.8048 7.51222 41.5771C7.62657 41.3497 7.64388 41.0856 7.55996 40.8451C7.25755 39.8744 7.37216 38.8219 7.87626 37.9391C8.38035 37.0563 9.22885 36.4229 10.2184 36.1902L18.0808 34.3102C19.5351 35.7333 21.4901 36.5286 23.5252 36.5249H23.6983C25.6711 36.4921 27.5558 35.7018 28.9621 34.3178L33.429 35.3819C33.9247 35.4808 34.4098 35.17 34.5273 34.6783C34.6446 34.1865 34.3521 33.69 33.8651 33.5544L33.8391 33.5622ZM23.8522 28.0387C23.4934 28.0387 23.1698 27.8225 23.0326 27.491C22.8952 27.1595 22.971 26.7776 23.2249 26.524C23.4788 26.2702 23.8604 26.1944 24.1919 26.3315C24.5234 26.469 24.7398 26.7926 24.7398 27.1514C24.7398 27.6416 24.3424 28.0387 23.8522 28.0387L23.8522 28.0387ZM34.0949 19.6686V22.9175C34.0949 23.3539 33.862 23.7573 33.4838 23.9758C33.1056 24.194 32.6398 24.194 32.2618 23.9758C31.8836 23.7573 31.6507 23.3539 31.6507 22.9175V19.5108C31.6507 19.0744 31.8836 18.671 32.2618 18.4525C32.6398 18.2343 33.1056 18.2343 33.4838 18.4525C33.862 18.671 34.0949 19.0743 34.0949 19.5108V19.6686ZM15.4372 22.9175C15.4372 23.3539 15.2043 23.7573 14.8264 23.9758C14.4482 24.194 13.9824 24.194 13.6044 23.9758C13.2262 23.7573 12.9933 23.3539 12.9933 22.9175V19.5108C12.9933 19.0744 13.2262 18.671 13.6044 18.4525C13.9824 18.2343 14.4482 18.2343 14.8264 18.4525C15.2043 18.671 15.4372 19.0743 15.4372 19.5108V22.9175ZM15.5049 16.6947C14.7286 16.3354 13.8371 16.3162 13.0461 16.642C13.3852 13.1311 15.4569 10.0223 18.5665 8.35788C21.676 6.6932 25.4117 6.6932 28.5217 8.35788C31.6313 10.0223 33.703 13.1311 34.0422 16.642C33.2493 16.3165 32.3565 16.3369 31.5794 16.6984C31.2468 14.067 29.6469 11.7652 27.2964 10.5365C24.9459 9.30767 22.1426 9.30767 19.7918 10.5365C17.4413 11.7652 15.8414 14.067 15.5089 16.6984L15.5049 16.6947Z" fill="#66A38B"/>
<path d="M33.8391 33.5622L29.5789 32.547V31.0205C29.5789 30.5012 29.158 30.0806 28.6389 30.0806C28.1199 30.0806 27.6989 30.5012 27.6989 31.0205V32.9006C26.6293 33.9922 25.1737 34.62 23.6457 34.6489C22.008 34.6924 20.4265 34.0519 19.2804 32.8817V29.8285C19.2793 29.4789 19.1657 29.1389 18.957 28.8586C18.0781 27.5759 17.5304 26.0956 17.3626 24.5497L17.3288 17.7514V17.7512C17.2527 16.0556 17.8719 14.4024 19.0432 13.1742C20.2148 11.9459 21.8367 11.2491 23.534 11.2452C25.2314 11.241 26.8567 11.93 28.0341 13.1524C29.2114 14.3752 29.8388 16.0251 29.7706 17.721V24.0456C29.7695 24.6165 29.5424 25.1639 29.1385 25.5678C28.7346 25.9717 28.1872 26.1989 27.6162 26.1999H26.4507C26.1533 25.3766 25.484 24.7427 24.646 24.4901C23.8078 24.2378 22.8995 24.3967 22.1971 24.9187C21.4944 25.4409 21.0803 26.2647 21.0803 27.1399C21.0803 28.0151 21.4944 28.8389 22.1971 29.3611C22.8995 29.8833 23.8077 30.0423 24.646 29.7897C25.4839 29.5374 26.1533 28.9032 26.4507 28.0799H27.6162C28.4122 28.0791 29.1901 27.8433 29.8524 27.4016C30.5147 26.9602 31.0316 26.3328 31.3385 25.5982C32.2961 26.1458 33.4726 26.143 34.4273 25.5909C35.3823 25.0385 35.9716 24.0203 35.9748 22.9175V17.6722C35.9672 14.3759 34.6505 11.2176 32.3144 8.89197C29.9783 6.56661 26.814 5.26417 23.5174 5.27176C20.2211 5.2791 17.063 6.59575 14.7371 8.93212C12.4115 11.2682 11.1093 14.4323 11.1166 17.7285V22.9174C11.1135 23.9982 11.6745 25.0022 12.5964 25.5664C13.5185 26.1303 14.6679 26.1722 15.6288 25.677C15.9076 27.1993 16.5116 28.6434 17.3997 29.911V32.5429L9.77095 34.3589C8.27621 34.7154 6.9966 35.6761 6.23755 37.0119C5.47824 38.3477 5.30776 39.9389 5.76651 41.4053C5.83444 41.6508 5.99914 41.858 6.22261 41.98C6.44633 42.1019 6.70966 42.1279 6.95279 42.0518C7.19592 41.976 7.39787 41.8048 7.51222 41.5771C7.62657 41.3497 7.64388 41.0856 7.55996 40.8451C7.25755 39.8744 7.37216 38.8219 7.87626 37.9391C8.38035 37.0563 9.22885 36.4229 10.2184 36.1902L18.0808 34.3102C19.5351 35.7333 21.4901 36.5286 23.5252 36.5249H23.6983C25.6711 36.4921 27.5558 35.7018 28.9621 34.3178L33.429 35.3819C33.9247 35.4808 34.4098 35.17 34.5273 34.6783C34.6446 34.1865 34.3521 33.69 33.8651 33.5544L33.8391 33.5622ZM23.8522 28.0387C23.4934 28.0387 23.1698 27.8225 23.0326 27.491C22.8952 27.1595 22.971 26.7776 23.2249 26.524C23.4788 26.2702 23.8604 26.1944 24.1919 26.3315C24.5234 26.469 24.7398 26.7926 24.7398 27.1514C24.7398 27.6416 24.3424 28.0387 23.8522 28.0387L23.8522 28.0387ZM34.0949 19.6686V22.9175C34.0949 23.3539 33.862 23.7573 33.4838 23.9758C33.1056 24.194 32.6398 24.194 32.2618 23.9758C31.8836 23.7573 31.6507 23.3539 31.6507 22.9175V19.5108C31.6507 19.0744 31.8836 18.671 32.2618 18.4525C32.6398 18.2343 33.1056 18.2343 33.4838 18.4525C33.862 18.671 34.0949 19.0743 34.0949 19.5108V19.6686ZM15.4372 22.9175C15.4372 23.3539 15.2043 23.7573 14.8264 23.9758C14.4482 24.194 13.9824 24.194 13.6044 23.9758C13.2262 23.7573 12.9933 23.3539 12.9933 22.9175V19.5108C12.9933 19.0744 13.2262 18.671 13.6044 18.4525C13.9824 18.2343 14.4482 18.2343 14.8264 18.4525C15.2043 18.671 15.4372 19.0743 15.4372 19.5108V22.9175ZM15.5049 16.6947C14.7286 16.3354 13.8371 16.3162 13.0461 16.642C13.3852 13.1311 15.4569 10.0223 18.5665 8.35788C21.676 6.6932 25.4117 6.6932 28.5217 8.35788C31.6313 10.0223 33.703 13.1311 34.0422 16.642C33.2493 16.3165 32.3565 16.3369 31.5794 16.6984C31.2468 14.067 29.6469 11.7652 27.2964 10.5365C24.9459 9.30767 22.1426 9.30767 19.7918 10.5365C17.4413 11.7652 15.8414 14.067 15.5089 16.6984L15.5049 16.6947Z" stroke="white"/>
<path d="M38.0438 27.2375C37.1318 27.0502 36.1829 27.189 35.3625 27.6294C34.5423 28.0697 33.9024 28.7839 33.5543 29.6476C33.3581 30.1284 33.5887 30.6773 34.0694 30.8735C34.5502 31.0697 35.0991 30.8391 35.2953 30.3584C35.4813 29.8994 35.8228 29.5202 36.2597 29.2873C36.6969 29.0543 37.2018 28.9822 37.6865 29.0837C38.0912 29.1648 38.4626 29.3636 38.7545 29.6552C39.0461 29.9471 39.2449 30.3185 39.326 30.7229C39.4225 31.1817 39.3643 31.6592 39.16 32.0812C38.9559 32.503 38.6176 32.8453 38.1979 33.0543C37.6361 33.3231 37.1614 33.7454 36.8288 34.2723C36.4962 34.799 36.3192 35.409 36.3179 36.0322V36.7841C36.3179 37.3032 36.7389 37.7241 37.2579 37.7241C37.7772 37.7241 38.1979 37.3032 38.1979 36.7841V36.0322C38.1995 35.7607 38.2776 35.4956 38.4232 35.2666C38.569 35.0379 38.7762 34.8549 39.0215 34.7387C40.0344 34.2487 40.7939 33.3544 41.1134 32.2756C41.4328 31.1966 41.2828 30.0329 40.7 29.0703C40.117 28.1078 39.1555 27.4355 38.0513 27.2187L38.0438 27.2375Z" fill="#66A38B"/>
<path d="M38.0438 27.2375C37.1318 27.0502 36.1829 27.189 35.3625 27.6294C34.5423 28.0697 33.9024 28.7839 33.5543 29.6476C33.3581 30.1284 33.5887 30.6773 34.0694 30.8735C34.5502 31.0697 35.0991 30.8391 35.2953 30.3584C35.4813 29.8994 35.8228 29.5202 36.2597 29.2873C36.6969 29.0543 37.2018 28.9822 37.6865 29.0837C38.0912 29.1648 38.4626 29.3636 38.7545 29.6552C39.0461 29.9471 39.2449 30.3185 39.326 30.7229C39.4225 31.1817 39.3643 31.6592 39.16 32.0812C38.9559 32.503 38.6176 32.8453 38.1979 33.0543C37.6361 33.3231 37.1614 33.7454 36.8288 34.2723C36.4962 34.799 36.3192 35.409 36.3179 36.0322V36.7841C36.3179 37.3032 36.7389 37.7241 37.2579 37.7241C37.7772 37.7241 38.1979 37.3032 38.1979 36.7841V36.0322C38.1995 35.7607 38.2776 35.4956 38.4232 35.2666C38.569 35.0379 38.7762 34.8549 39.0215 34.7387C40.0344 34.2487 40.7939 33.3544 41.1134 32.2756C41.4328 31.1966 41.2828 30.0329 40.7 29.0703C40.117 28.1078 39.1555 27.4355 38.0513 27.2187L38.0438 27.2375Z" stroke="white"/>
<path d="M38.2612 40.1424C38.2612 40.7011 37.8082 41.1537 37.2499 41.1537C36.6912 41.1537 36.2383 40.701 36.2383 40.1424C36.2383 39.5838 36.6912 39.1311 37.2499 39.1311C37.8082 39.1311 38.2612 39.5838 38.2612 40.1424Z" fill="#66A38B"/>
</svg>
