<svg width="60" height="59" viewBox="0 0 60 59" fill="none" xmlns="http://www.w3.org/2000/svg">
<rect y="0.359375" width="59.0756" height="57.7308" rx="28.8654" fill="#66A38B" fill-opacity="0.05"/>
<path d="M39.0173 14.3929H21.0173C19.5259 14.3946 18.0962 14.9877 17.0419 16.0422C15.9875 17.0966 15.3943 18.5262 15.3926 20.0176V38.0176C15.3943 39.509 15.9874 40.9387 17.0419 41.9933C18.0963 43.0477 19.5259 43.6409 21.0173 43.6429H39.0173C40.5087 43.6412 41.9386 43.048 42.993 41.9933C44.0477 40.9389 44.6409 39.509 44.6426 38.0176V20.0176C44.6406 18.5262 44.0474 17.0965 42.993 16.0422C41.9383 14.9877 40.5087 14.3946 39.0173 14.3929ZM21.0173 16.6429H39.0173C39.9121 16.6437 40.7701 16.9995 41.4029 17.6323C42.0357 18.2648 42.3914 19.1228 42.3925 20.0177V33.052L40.2725 30.932C39.6405 30.3008 38.7837 29.9462 37.8905 29.9462C36.9974 29.9462 36.1408 30.3008 35.5088 30.932L33.0571 33.3859C32.8445 33.5901 32.561 33.7042 32.2661 33.7042C31.9712 33.7042 31.6877 33.5901 31.4748 33.3859L26.7739 28.6839C26.142 28.0527 25.2854 27.6984 24.3922 27.6984C23.4991 27.6984 22.6425 28.0527 22.0105 28.6839L17.6425 33.0519V20.0176C17.6433 19.1228 17.9991 18.2648 18.6319 17.6322C19.2645 16.9994 20.1224 16.6437 21.0173 16.6428V16.6429ZM39.0173 41.3929H21.0173C20.1225 41.3918 19.2645 41.036 18.6319 40.4032C17.9991 39.7704 17.6434 38.9125 17.6425 38.0177V36.2336L23.6026 30.2735L23.6023 30.2738C23.8124 30.0643 24.0967 29.9465 24.3933 29.9465C24.6899 29.9465 24.9745 30.0643 25.1843 30.2738L29.8852 34.9777C30.5171 35.6086 31.374 35.9629 32.2672 35.9629C33.1603 35.9629 34.0172 35.6086 34.6492 34.9777L37.1012 32.5257C37.3113 32.3162 37.5956 32.1985 37.8922 32.1985C38.1887 32.1985 38.4731 32.3162 38.6832 32.5257L42.3924 36.235V38.0177C42.3913 38.9125 42.0356 39.7704 41.4028 40.4032C40.77 41.036 39.912 41.3918 39.0172 41.3929L39.0173 41.3929Z" fill="#66A38B" fill-opacity="0.33"/>
<path d="M35.0808 27.8925C36.1252 27.8925 37.1266 27.4779 37.8651 26.7393C38.6037 26.001 39.0186 24.9994 39.0186 23.955C39.0188 22.9107 38.6039 21.9093 37.8656 21.1708C37.1271 20.4322 36.1254 20.0173 35.0813 20.0173C34.037 20.0173 33.0353 20.4322 32.2968 21.1705C31.5585 21.9091 31.1436 22.9105 31.1436 23.9548C31.1447 24.9989 31.5598 25.9995 32.2981 26.7378C33.0361 27.4758 34.0367 27.8912 35.0808 27.8926L35.0808 27.8925ZM35.0808 22.2673C35.5284 22.2673 35.9575 22.445 36.2742 22.7614C36.5909 23.0778 36.7686 23.507 36.7686 23.9545C36.7689 24.4023 36.5912 24.8314 36.2745 25.1481C35.9581 25.4645 35.5289 25.6425 35.0814 25.6425C34.6336 25.6425 34.2045 25.4648 33.8878 25.1481C33.5714 24.8317 33.3936 24.4025 33.3936 23.9548C33.3939 23.5075 33.5719 23.0786 33.888 22.7623C34.2044 22.4459 34.6333 22.2678 35.0808 22.2673L35.0808 22.2673Z" fill="#66A38B" fill-opacity="0.33"/>
</svg>
