<svg width="55" height="55" viewBox="0 0 55 55" fill="none" xmlns="http://www.w3.org/2000/svg">
<path d="M42.1318 9.7447H11.8818C10.6717 9.7447 9.74434 10.672 9.74434 11.8822V33.8822C9.74434 35.0924 10.6717 36.0197 11.8818 36.0197H24.8693V39.9947H20.8193C20.596 39.9947 20.4041 40.0695 20.2679 40.2057C20.1316 40.342 20.0568 40.5339 20.0568 40.7572V43.5072C20.0568 43.7305 20.1316 43.9224 20.2679 44.0587C20.4041 44.1949 20.596 44.2697 20.8193 44.2697H33.1943C33.4176 44.2697 33.6095 44.1949 33.7458 44.0587C33.8821 43.9224 33.9568 43.7305 33.9568 43.5072V40.7572C33.9568 40.5339 33.8821 40.342 33.7458 40.2057C33.6095 40.0695 33.4176 39.9947 33.1943 39.9947H29.1443V36.0197H42.1318C43.342 36.0197 44.2693 35.0924 44.2693 33.8822V11.8822C44.2693 10.672 43.342 9.7447 42.1318 9.7447ZM11.2693 11.8822C11.2693 11.693 11.3321 11.5412 11.4364 11.4368C11.5408 11.3324 11.6926 11.2697 11.8818 11.2697H42.1318C42.321 11.2697 42.4729 11.3324 42.5772 11.4368C42.6816 11.5412 42.7443 11.693 42.7443 11.8822V30.3697H11.2693V11.8822ZM32.4318 42.7447H21.5818V41.5197H32.4318V42.7447ZM27.6193 39.9947H26.3943V36.0197H27.6193V39.9947ZM42.7443 33.8822C42.7443 34.0714 42.6816 34.2233 42.5772 34.3276C42.4729 34.432 42.321 34.4947 42.1318 34.4947H11.8818C11.6926 34.4947 11.5408 34.432 11.4364 34.3276C11.3321 34.2233 11.2693 34.0714 11.2693 33.8822V31.8947H42.7443V33.8822Z" fill="#66A38B" stroke="#66A38B" stroke-width="0.15"/>
<path d="M27.6934 33.1948C27.6934 33.5745 27.3855 33.8823 27.0059 33.8823C26.6262 33.8823 26.3184 33.5745 26.3184 33.1948C26.3184 32.8152 26.6262 32.5073 27.0059 32.5073C27.3855 32.5073 27.6934 32.8152 27.6934 33.1948Z" fill="#66A38B"/>
<path d="M18.7559 13.1832H13.2559C13.0326 13.1832 12.8407 13.2579 12.7044 13.3942C12.5681 13.5305 12.4934 13.7224 12.4934 13.9457V19.4457C12.4934 19.669 12.5681 19.8609 12.7044 19.9971C12.8407 20.1334 13.0326 20.2082 13.2559 20.2082H18.7559C18.9792 20.2082 19.1711 20.1334 19.3073 19.9971C19.4436 19.8609 19.5184 19.669 19.5184 19.4457V13.9457C19.5184 13.7224 19.4436 13.5305 19.3073 13.3942C19.1711 13.2579 18.9792 13.1832 18.7559 13.1832ZM17.9934 18.6832H14.0184V14.7082H17.9934V18.6832Z" fill="#66A38B" stroke="#66A38B" stroke-width="0.15"/>
<path d="M18.7559 21.432H13.2559C13.0326 21.432 12.8407 21.5067 12.7044 21.643C12.5681 21.7793 12.4934 21.9712 12.4934 22.1945V27.6945C12.4934 27.9178 12.5681 28.1097 12.7044 28.2459C12.8407 28.3822 13.0326 28.457 13.2559 28.457H18.7559C18.9792 28.457 19.1711 28.3822 19.3073 28.2459C19.4436 28.1097 19.5184 27.9178 19.5184 27.6945V22.1945C19.5184 21.9712 19.4436 21.7793 19.3073 21.643C19.1711 21.5067 18.9792 21.432 18.7559 21.432ZM17.9934 26.932H14.0184V22.957H17.9934V26.932Z" fill="#66A38B" stroke="#66A38B" stroke-width="0.15"/>
<path d="M21.5068 16.082H22.8818C23.1051 16.082 23.297 16.0072 23.4333 15.8709C23.5696 15.7347 23.6443 15.5428 23.6443 15.3195C23.6443 15.0962 23.5696 14.9043 23.4333 14.768C23.297 14.6317 23.1051 14.557 22.8818 14.557H21.5068C21.2835 14.557 21.0916 14.6317 20.9554 14.768C20.8191 14.9043 20.7443 15.0962 20.7443 15.3195C20.7443 15.5428 20.8191 15.7347 20.9554 15.8709C21.0916 16.0072 21.2835 16.082 21.5068 16.082Z" fill="#66A38B" stroke="#66A38B" stroke-width="0.15"/>
<path d="M24.9443 17.3068H21.5068C21.2835 17.3068 21.0916 17.3816 20.9554 17.5179C20.8191 17.6541 20.7443 17.846 20.7443 18.0693C20.7443 18.2926 20.8191 18.4845 20.9554 18.6208C21.0916 18.7571 21.2835 18.8318 21.5068 18.8318H24.9443C25.1676 18.8318 25.3595 18.7571 25.4958 18.6208C25.6321 18.4845 25.7068 18.2926 25.7068 18.0693C25.7068 17.846 25.6321 17.6541 25.4958 17.5179C25.3595 17.3816 25.1676 17.3068 24.9443 17.3068Z" fill="#66A38B" stroke="#66A38B" stroke-width="0.15"/>
<path d="M21.5068 24.332H22.8818C23.1051 24.332 23.297 24.2572 23.4333 24.1209C23.5696 23.9847 23.6443 23.7928 23.6443 23.5695C23.6443 23.3462 23.5696 23.1543 23.4333 23.018C23.297 22.8817 23.1051 22.807 22.8818 22.807H21.5068C21.2835 22.807 21.0916 22.8817 20.9554 23.018C20.8191 23.1543 20.7443 23.3462 20.7443 23.5695C20.7443 23.7928 20.8191 23.9847 20.9554 24.1209C21.0916 24.2572 21.2835 24.332 21.5068 24.332Z" fill="#66A38B" stroke="#66A38B" stroke-width="0.15"/>
<path d="M24.9434 25.5573H21.5059C21.2826 25.5573 21.0907 25.6321 20.9544 25.7684C20.8181 25.9046 20.7434 26.0965 20.7434 26.3198C20.7434 26.5431 20.8181 26.735 20.9544 26.8713C21.0907 27.0076 21.2826 27.0823 21.5059 27.0823H24.9434C25.1667 27.0823 25.3586 27.0076 25.4948 26.8713C25.6311 26.735 25.7059 26.5431 25.7059 26.3198C25.7059 26.0965 25.6311 25.9046 25.4948 25.7684C25.3586 25.6321 25.1667 25.5573 24.9434 25.5573Z" fill="#66A38B" stroke="#66A38B" stroke-width="0.15"/>
<path d="M34.5693 13.1832H29.0693C28.846 13.1832 28.6541 13.2579 28.5179 13.3942C28.3816 13.5305 28.3068 13.7224 28.3068 13.9457V19.4457C28.3068 19.669 28.3816 19.8609 28.5179 19.9971C28.6541 20.1334 28.846 20.2082 29.0693 20.2082H34.5693C34.7926 20.2082 34.9845 20.1334 35.1208 19.9971C35.2571 19.8609 35.3318 19.669 35.3318 19.4457V13.9457C35.3318 13.7224 35.2571 13.5305 35.1208 13.3942C34.9845 13.2579 34.7926 13.1832 34.5693 13.1832ZM33.8068 18.6832H29.8318V14.7082H33.8068V18.6832Z" fill="#66A38B" stroke="#66A38B" stroke-width="0.15"/>
<path d="M34.5693 21.432H29.0693C28.846 21.432 28.6541 21.5067 28.5179 21.643C28.3816 21.7793 28.3068 21.9712 28.3068 22.1945V27.6945C28.3068 27.9178 28.3816 28.1097 28.5179 28.2459C28.6541 28.3822 28.846 28.457 29.0693 28.457H34.5693C34.7926 28.457 34.9845 28.3822 35.1208 28.2459C35.2571 28.1097 35.3318 27.9178 35.3318 27.6945V22.1945C35.3318 21.9712 35.2571 21.7793 35.1208 21.643C34.9845 21.5067 34.7926 21.432 34.5693 21.432ZM33.8068 26.932H29.8318V22.957H33.8068V26.932Z" fill="#66A38B" stroke="#66A38B" stroke-width="0.15"/>
<path d="M37.3193 16.082H38.6943C38.9176 16.082 39.1095 16.0072 39.2458 15.8709C39.3821 15.7347 39.4568 15.5428 39.4568 15.3195C39.4568 15.0962 39.3821 14.9043 39.2458 14.768C39.1095 14.6317 38.9176 14.557 38.6943 14.557H37.3193C37.096 14.557 36.9041 14.6317 36.7679 14.768C36.6316 14.9043 36.5568 15.0962 36.5568 15.3195C36.5568 15.5428 36.6316 15.7347 36.7679 15.8709C36.9041 16.0072 37.096 16.082 37.3193 16.082Z" fill="#66A38B" stroke="#66A38B" stroke-width="0.15"/>
<path d="M40.7559 17.3068H37.3184C37.0951 17.3068 36.9032 17.3816 36.7669 17.5179C36.6306 17.6541 36.5559 17.846 36.5559 18.0693C36.5559 18.2926 36.6306 18.4845 36.7669 18.6208C36.9032 18.7571 37.0951 18.8318 37.3184 18.8318H40.7559C40.9792 18.8318 41.1711 18.7571 41.3073 18.6208C41.4436 18.4845 41.5184 18.2926 41.5184 18.0693C41.5184 17.846 41.4436 17.6541 41.3073 17.5179C41.1711 17.3816 40.9792 17.3068 40.7559 17.3068Z" fill="#66A38B" stroke="#66A38B" stroke-width="0.15"/>
<path d="M37.3193 24.332H38.6943C38.9176 24.332 39.1095 24.2572 39.2458 24.1209C39.3821 23.9847 39.4568 23.7928 39.4568 23.5695C39.4568 23.3462 39.3821 23.1543 39.2458 23.018C39.1095 22.8817 38.9176 22.807 38.6943 22.807H37.3193C37.096 22.807 36.9041 22.8817 36.7679 23.018C36.6316 23.1543 36.5568 23.3462 36.5568 23.5695C36.5568 23.7928 36.6316 23.9847 36.7679 24.1209C36.9041 24.2572 37.096 24.332 37.3193 24.332Z" fill="#66A38B" stroke="#66A38B" stroke-width="0.15"/>
<path d="M40.7559 25.5573H37.3184C37.0951 25.5573 36.9032 25.6321 36.7669 25.7684C36.6306 25.9046 36.5559 26.0965 36.5559 26.3198C36.5559 26.5431 36.6306 26.735 36.7669 26.8713C36.9032 27.0076 37.0951 27.0823 37.3184 27.0823H40.7559C40.9792 27.0823 41.1711 27.0076 41.3073 26.8713C41.4436 26.735 41.5184 26.5431 41.5184 26.3198C41.5184 26.0965 41.4436 25.9046 41.3073 25.7684C41.1711 25.6321 40.9792 25.5573 40.7559 25.5573Z" fill="#66A38B" stroke="#66A38B" stroke-width="0.15"/>
</svg>
