<svg width="48" height="39" viewBox="0 0 48 39" fill="none" xmlns="http://www.w3.org/2000/svg">
<path d="M8.05176 31.7361C7.68898 31.7142 7.33655 31.864 7.1014 32.1409C6.86565 32.4179 6.77429 32.7897 6.85485 33.1443L8.05176 31.7361ZM8.05176 31.7361V31.7362V31.7442L8.04647 31.831C7.71327 31.8107 7.38963 31.9482 7.17381 32.2024L7.17374 32.2024C6.95739 32.4566 6.87357 32.7978 6.94749 33.1232L6.94933 33.1314L6.94897 33.1314C7.02227 33.6679 7.49808 34.0565 8.03873 34.0214L8.04488 34.021V34.0212H11.5089H11.5987L11.6038 34.1109C11.6658 35.2101 12.1435 36.2448 12.9408 37.0047M8.05176 31.7361L12.9407 37.0046C12.9408 37.0046 12.9408 37.0047 12.9408 37.0047M12.9408 37.0047C13.7349 37.7598 14.7972 38.1684 15.8933 38.14L15.8954 38.14C16.7548 38.1371 17.5913 37.8602 18.2822 37.3492L18.2832 37.3485C19.3324 36.5943 19.9794 35.4021 20.0394 34.1119L20.0436 34.0213H20.1343H30.8648H30.9389L30.9569 34.0933C31.3065 35.491 31.8401 36.5029 32.5582 37.1619C33.2685 37.8138 34.1681 38.1282 35.2733 38.1197M12.9408 37.0047L35.2733 38.1197M35.2733 38.1197L35.298 38.119C36.3664 38.0878 37.384 37.6564 38.1499 36.9102C38.9152 36.1636 39.3721 35.1571 39.4302 34.09L39.4351 34.0002H39.5251H40.1449H40.1509L40.1509 34.0004C40.9454 34.0507 41.7233 33.7573 42.2858 33.1941L42.2858 33.1941C42.8485 32.6314 43.142 31.8536 43.0917 31.0592L43.0915 31.0557H43.0915C43.0686 30.1859 43.0778 29.2979 43.087 28.4066C43.0877 28.3397 43.0884 28.2728 43.089 28.2059C43.0987 27.2465 43.1057 26.2839 43.0704 25.3325L43.0693 25.3028C43.0299 24.5406 42.8733 23.7888 42.6053 23.0737C42.0944 21.7111 41.497 20.4075 40.8959 19.0956L40.8661 19.0305H40.8645L40.8396 18.9737C40.6084 18.4471 40.3005 17.9576 39.9266 17.5205C39.0291 16.5629 37.7501 16.0574 36.4408 16.1434L36.4346 16.1438V16.1436H33.5128H33.4178V16.0486V15.3443C33.4178 14.542 33.2705 14.0178 32.9488 13.6913C32.6275 13.3651 32.1107 13.2144 31.3159 13.2144L10.0445 13.2149L10.0414 13.2149L10.0414 13.2149C9.79596 13.2068 9.55066 13.2224 9.30925 13.2623C8.9849 13.3353 8.71583 13.561 8.58808 13.8676C8.45998 14.1755 8.48962 14.5261 8.66723 14.8085L8.66778 14.8094L8.66778 14.8094C8.8991 15.1863 9.32678 15.3967 9.76662 15.3491L9.77684 15.3479V15.3485H31.1325H31.2275V15.4435V23.646C31.2275 24.4482 31.4014 24.9931 31.7545 25.3404C32.108 25.688 32.6604 25.8569 33.4631 25.8603C33.4632 25.8603 33.4632 25.8603 33.4633 25.8603L40.7716 25.8603H40.8666V25.9553V30.4546C40.8666 30.5135 40.8667 30.57 40.8668 30.6241C40.8673 30.9049 40.8676 31.1223 40.8541 31.2869C40.8382 31.4803 40.8019 31.6308 40.6965 31.7289C40.5921 31.8263 40.4407 31.8523 40.2567 31.8614C40.1467 31.8669 40.0118 31.8664 39.8516 31.8658C39.7423 31.8654 39.6213 31.865 39.4883 31.8664C39.1265 31.904 38.7722 31.74 38.5671 31.4383C37.7816 30.3468 36.514 29.7058 35.1688 29.7212H35.1688C33.8239 29.7361 32.5705 30.4055 31.8095 31.5147C31.6443 31.7636 31.3534 31.8992 31.0569 31.8665H19.9967C19.6828 31.8872 19.3822 31.7362 19.2107 31.4723C18.4391 30.3577 17.1702 29.6928 15.8148 29.6928C14.4593 29.6928 13.19 30.3578 12.4188 31.4723C12.2552 31.7236 11.9644 31.8623 11.6658 31.8312H8.05225L35.2733 38.1197ZM36.8682 18.3125C36.1408 18.2749 35.4044 18.2873 34.6594 18.2998C34.2839 18.3061 33.9063 18.3124 33.5266 18.3124H33.4316V18.4074V23.5546V23.6494L33.5264 23.6496L40.2997 23.6633L40.4452 23.6636L40.387 23.5303C40.2448 23.2045 40.1036 22.8822 39.9635 22.5624C39.5344 21.5834 39.1158 20.6283 38.7128 19.6687C38.576 19.2844 38.3271 18.9506 37.9993 18.7091L37.9992 18.7091C37.6703 18.4672 37.2766 18.3286 36.8682 18.3125ZM36.8682 18.3125C36.8684 18.3125 36.8686 18.3125 36.8688 18.3125L36.8639 18.4074M36.8682 18.3125C36.868 18.3125 36.8678 18.3125 36.8676 18.3125L36.8639 18.4074M36.8639 18.4074C37.2534 18.4226 37.6291 18.5548 37.9429 18.7856L33.5266 18.5024V18.4074C33.9099 18.4074 34.2893 18.401 34.6655 18.3947C35.4086 18.3822 36.1394 18.3699 36.8639 18.4074ZM15.9273 35.9843L15.8433 35.985C15.8413 35.985 15.8393 35.985 15.8374 35.985C15.8359 35.985 15.8345 35.9851 15.833 35.9851C15.8329 35.9851 15.8328 35.985 15.8327 35.985L15.8323 35.8901C15.8221 35.8901 15.812 35.8901 15.8018 35.8901C15.8016 35.8901 15.8015 35.89 15.8013 35.89M15.9273 35.9843L15.8013 35.89M15.9273 35.9843V35.9825M15.9273 35.9843V35.9825M15.8013 35.89C15.7799 35.8899 15.7586 35.8893 15.7373 35.8885V35.89H15.8013ZM15.8233 31.8665C16.3712 31.8675 16.8958 32.0874 17.2814 32.4766C17.667 32.8659 17.8812 33.3927 17.8776 33.9404M15.8233 31.8665L15.9273 35.8901V35.9825M15.8233 31.8665C15.8233 31.8665 15.8232 31.8665 15.8232 31.8665L15.823 31.9615L15.8233 31.8665ZM17.8776 33.9404L17.7826 33.9397L17.8776 33.9401C17.8776 33.9402 17.8776 33.9403 17.8776 33.9404ZM17.8776 33.9404C17.8755 34.482 17.6597 35.001 17.2766 35.3841C16.9158 35.7448 16.4345 35.9572 15.9273 35.9825M33.4605 34.9553L33.4605 34.9553C33.8287 35.5927 34.5083 35.9851 35.2441 35.9851C35.9798 35.9851 36.66 35.5927 37.0277 34.9552C37.3958 34.3183 37.3958 33.5332 37.0277 32.8963C36.66 32.2588 35.9798 31.8664 35.2441 31.8664C34.5083 31.8664 33.8287 32.2588 33.4605 32.8962L33.4605 32.8962C33.0929 33.5332 33.0929 34.3183 33.4605 34.9553Z" fill="#66A38B" stroke="white" stroke-width="0.19"/>
<path d="M4.10164 24.7061H4.03384L4.0331 24.7082C3.61313 24.7092 3.22785 24.4677 3.04712 24.0847L3.0472 24.0847L3.04522 24.0809C2.86151 23.7328 2.90183 23.3089 3.14785 23.0015L3.14788 23.0015L3.1495 22.9993C3.38617 22.6857 3.77073 22.5202 4.16104 22.565L4.16097 22.5656H4.17187H8.13583H12.1564V22.566L12.1649 22.5652C12.4768 22.5373 12.7846 22.6486 13.0063 22.8694L13.0064 22.8695C13.2281 23.0899 13.3412 23.3973 13.3151 23.7087L13.3151 23.7088C13.2907 24.0049 13.1474 24.2783 12.9179 24.4663C12.6883 24.6543 12.3918 24.7411 12.0971 24.7067L12.0972 24.7061H12.0861H4.10164Z" fill="#66A38B" stroke="white" stroke-width="0.19"/>
<path d="M9.81665 29.1624V29.1771H2.02617C1.53658 29.1734 1.1523 28.9809 0.93444 28.7035C0.718054 28.428 0.658943 28.0611 0.830911 27.6848L0.831535 27.6834C1.01715 27.2594 1.45119 26.9996 1.91289 27.0358L1.91287 27.036H1.9203H5.98988H9.90481V27.0369L9.91768 27.0352C10.2282 26.9927 10.5428 27.0854 10.7805 27.2896C11.0174 27.4932 11.1561 27.7889 11.1614 28.1016L11.1614 28.103C11.1609 28.4168 11.0246 28.7149 10.7874 28.9214C10.5503 29.1274 10.2359 29.2208 9.92476 29.1775L9.81665 29.1624Z" fill="#66A38B" stroke="white" stroke-width="0.19"/>
<path d="M6.29174 20.2125H6.19624L6.1963 20.2244C5.92211 20.2279 5.65606 20.1265 5.45359 19.9392L5.45352 19.9391C5.22923 19.732 5.10385 19.4396 5.10881 19.1348L5.10882 19.1346C5.11333 18.8296 5.24734 18.5408 5.47746 18.3405C5.7075 18.1402 6.01207 18.0476 6.31498 18.0851L6.3149 18.0858H6.32665H10.3122H14.4241V18.0858L14.4259 18.0858C14.8821 18.0768 15.2898 18.3712 15.4246 18.8076L15.4243 18.8077L15.427 18.8145C15.5909 19.2298 15.4445 19.7033 15.0745 19.9544L15.0745 19.9543L15.0724 19.9559C14.8664 20.1042 14.6237 20.1931 14.3709 20.2125H6.29174Z" fill="#66A38B" stroke="white" stroke-width="0.19"/>
<path d="M44.486 3.90843L44.4971 3.91945C46.3866 5.82752 47.5451 8.34004 47.7697 11.0161C47.9941 13.6961 47.2681 16.3693 45.7181 18.5671C45.3564 18.9607 44.7584 19.0258 44.3203 18.7185C43.8822 18.4111 43.74 17.8271 43.9866 17.3526C45.5082 15.1781 46.0289 12.4567 45.4171 9.87391C44.8047 7.28913 43.1166 5.08897 40.7785 3.8286C38.4404 2.56774 35.6746 2.36669 33.1786 3.27583C30.6858 4.18381 28.6994 6.11262 27.7181 8.57724C27.4374 8.99025 26.9074 9.15375 26.4423 8.96915C25.9776 8.7845 25.7035 8.30252 25.7823 7.80936C27.1971 4.23352 30.3138 1.60764 34.0782 0.820705C37.8459 0.0331235 41.7573 1.19342 44.486 3.90843Z" fill="#66A38B" stroke="white" stroke-width="0.19"/>
<path d="M35.2451 11.9576C35.2433 12.2649 35.3641 12.5604 35.5811 12.7783C35.7977 12.9964 36.0924 13.1191 36.3998 13.1191H41.0681C41.3805 13.1191 41.6796 12.9924 41.8972 12.7685M35.2451 11.9576L36.4352 4.93726C37.0678 4.96379 37.5663 5.48685 37.5619 6.12043V10.7074V10.8024H37.6569H41.0401C41.6747 10.7946 42.2002 11.2945 42.2228 11.9291M35.2451 11.9576H35.322M35.2451 11.9576H35.322M41.8972 12.7685C42.1148 12.544 42.2326 12.2415 42.2228 11.9291M41.8972 12.7685L41.829 12.7023C41.829 12.7023 41.829 12.7023 41.829 12.7023M41.8972 12.7685L41.829 12.7023M42.2228 11.9291L42.1279 11.9321C42.1279 11.9321 42.1279 11.9322 42.1279 11.9322M42.2228 11.9291L42.1279 11.9325C42.1279 11.9324 42.1279 11.9323 42.1279 11.9322M42.1279 11.9322C42.1368 12.2187 42.0287 12.4963 41.829 12.7023M42.1279 11.9322C42.107 11.3495 41.6243 10.8902 41.0413 10.8974L41.0401 10.8974V10.8974H37.5619H37.4669V10.8024V6.12043V6.11976H37.4669C37.4709 5.53738 37.0127 5.05657 36.4312 5.03218L36.4297 5.03211M41.829 12.7023C41.6292 12.9079 41.3547 13.0241 41.0681 13.0241H36.3998C36.1177 13.0241 35.8473 12.9115 35.6485 12.7113L35.6484 12.7113C35.4492 12.5112 35.3383 12.2399 35.3401 11.9577L35.322 11.9576M35.322 11.9576L35.2451 11.9568L35.3401 11.9571V6.09925C35.3401 5.8115 35.456 5.53638 35.6618 5.33517L35.5953 5.26726L35.6617 5.33525C35.8665 5.13536 36.1435 5.02625 36.4297 5.03211M36.4297 5.03211C36.4302 5.03213 36.4307 5.03214 36.4312 5.03215C36.4318 5.03216 36.4324 5.03217 36.4329 5.03219L36.4352 4.93858L36.4352 4.93727L36.4352 4.93721L36.3489 4.977L36.3489 4.97705L36.3732 5.02975L36.4297 5.03211Z" fill="#66A38B" stroke="white" stroke-width="0.19"/>
</svg>
