<svg width="11" height="19" viewBox="0 0 11 19" fill="none" xmlns="http://www.w3.org/2000/svg">
<path d="M9.66432 8.67185L9.66454 8.67209C9.83465 8.86567 9.93438 9.11422 9.94738 9.37498C9.96488 9.67919 9.86316 9.9781 9.66448 10.2039L9.66432 10.2041L2.81207 17.9637L2.81185 17.9639C2.6164 18.1841 2.3439 18.3156 2.05381 18.3269M9.66432 8.67185L2.0486 18.1932M9.66432 8.67185L2.81207 0.912267L2.81185 0.912021C2.61642 0.6918 2.34394 0.56038 2.05388 0.548911L2.05381 0.548909C1.76378 0.537598 1.48244 0.647152 1.27144 0.851906L9.66432 8.67185ZM2.05381 18.3269L2.0486 18.1932M2.05381 18.3269C2.05384 18.3269 2.05386 18.3269 2.05388 18.3269L2.0486 18.1932M2.05381 18.3269C1.76369 18.3383 1.48241 18.2286 1.27147 18.0241M2.0486 18.1932C1.79592 18.2032 1.54991 18.1077 1.36456 17.928M1.27147 18.0241L1.36456 17.928M1.27147 18.0241C1.06051 17.8196 0.937191 17.5372 0.926565 17.2395M1.27147 18.0241C1.27146 18.024 1.27145 18.024 1.27144 18.024L1.36456 17.928M1.36456 17.928L0.926565 17.2395M0.926565 17.2395L1.05837 17.2348L0.926567 17.2396C0.926567 17.2396 0.926566 17.2395 0.926565 17.2395ZM1.21392 16.4308L1.21369 16.431L1.31398 16.5196L1.21392 16.4308ZM1.2714 0.851942C1.0605 1.05634 0.937207 1.33868 0.926567 1.63635L1.2714 0.851942ZM0.926565 1.63641C0.915808 1.93409 1.01865 2.2249 1.2138 2.44487C1.21384 2.44492 1.21388 2.44496 1.21392 2.44501L7.3872 9.43789L0.926565 1.63641Z" fill="white" stroke="white" stroke-width="0.267544"/>
</svg>
