<svg width="11" height="19" viewBox="0 0 11 19" fill="none" xmlns="http://www.w3.org/2000/svg">
<path d="M1.33568 10.3282L1.33546 10.3279C1.16535 10.1343 1.06562 9.88578 1.05262 9.62502C1.03512 9.32081 1.13684 9.0219 1.33552 8.7961L1.33568 8.79593L8.18793 1.03634L8.18815 1.03609C8.3836 0.81588 8.6561 0.684439 8.94619 0.673124M1.33568 10.3282L8.9514 0.806795M1.33568 10.3282L8.18793 18.0877L8.18815 18.088C8.38358 18.3082 8.65606 18.4396 8.94612 18.4511L8.94619 18.4511C9.23622 18.4624 9.51756 18.3528 9.72856 18.1481L1.33568 10.3282ZM8.94619 0.673124L8.9514 0.806795M8.94619 0.673124C8.94616 0.673124 8.94614 0.673128 8.94612 0.673128L8.9514 0.806795M8.94619 0.673124C9.23631 0.661671 9.51759 0.77142 9.72853 0.975946M8.9514 0.806795C9.20408 0.796801 9.45009 0.892284 9.63544 1.07201M9.72853 0.975946L9.63544 1.07201M9.72853 0.975946C9.93949 1.18038 10.0628 1.46278 10.0734 1.76049M9.72853 0.975946C9.72854 0.975956 9.72855 0.975967 9.72856 0.975977L9.63544 1.07201M9.63544 1.07201L10.0734 1.76049M10.0734 1.76049L9.94163 1.76519L10.0734 1.76042C10.0734 1.76044 10.0734 1.76047 10.0734 1.76049ZM9.78608 2.56922L9.78631 2.56895L9.68602 2.48042L9.78608 2.56922ZM9.7286 18.1481C9.9395 17.9437 10.0628 17.6613 10.0734 17.3637L9.7286 18.1481ZM10.0734 17.3636C10.0842 17.0659 9.98135 16.7751 9.7862 16.5551C9.78616 16.5551 9.78612 16.555 9.78608 16.555L3.6128 9.56211L10.0734 17.3636Z" fill="white" stroke="white" stroke-width="0.267544"/>
</svg>
