<svg width="250" height="86" viewBox="0 0 250 86" fill="none" xmlns="http://www.w3.org/2000/svg">
<g clip-path="url(#clip0_81_491)">
<path d="M77.4727 30.3594H80.1797V26.6724H83.0293V66.2392H81.2096V68.9463H87.5536V66.2392H85.7364V26.6724H88.586V30.3594H91.2931V23.9653H77.4727V30.3594Z" fill="#1C5F4E"/>
<path d="M102.7 26.6724H104.517V37.7058C104.528 38.107 104.455 38.5062 104.305 38.8782C104.154 39.2502 103.929 39.5872 103.642 39.868C103.37 40.1519 103.042 40.3764 102.679 40.5274C102.316 40.6784 101.925 40.7526 101.532 40.7454H98.4977V26.6724H100.315V23.9653H93.9834V26.6724H95.8006V66.2417H93.9834V68.9488H100.325V66.2417H98.5077V43.4475H101.532C102.323 43.4482 103.082 43.7625 103.641 44.3215C104.201 44.8806 104.515 45.6387 104.517 46.4296V66.2417H102.7V68.9488H109.094V66.2417H107.231V46.4296C107.254 45.6013 107.085 44.7791 106.738 44.0265C106.391 43.274 105.876 42.6115 105.232 42.0902C106.561 41.0429 107.231 39.5706 107.231 37.7058V26.6724H109.101V23.9653H102.7V26.6724Z" fill="#1C5F4E"/>
<path d="M125.028 29.7071C125.034 28.9555 124.892 28.2102 124.608 27.5139C124.325 26.8176 123.908 26.1841 123.379 25.6499C122.85 25.1156 122.221 24.6911 121.528 24.4007C120.835 24.1104 120.091 23.9599 119.339 23.9579C118.585 23.9365 117.835 24.0762 117.138 24.3675C116.442 24.6589 115.816 25.0953 115.302 25.6477C114.751 26.167 114.315 26.7957 114.022 27.4935C113.728 28.1913 113.584 28.9427 113.598 29.6996V66.2418H111.78V68.949H118.122V66.2418H116.305V43.4476H122.321V66.2418H120.504V68.949H126.898V66.2418H125.028V29.7071ZM122.321 40.7455H116.305V29.7071C116.314 28.9053 116.637 28.1391 117.204 27.5721C117.771 27.0051 118.537 26.6823 119.339 26.6726C119.73 26.6658 120.118 26.7426 120.477 26.8978C120.836 27.053 121.158 27.283 121.421 27.5724C121.711 27.8467 121.94 28.178 122.095 28.5455C122.25 28.9129 122.327 29.3084 122.321 29.7071V40.7455Z" fill="#1C5F4E"/>
<path d="M138.316 26.6724H140.133V40.7404H134.114V26.6724H135.934V23.9653H129.59V26.6724H131.41V66.2392H129.59V68.9463H135.934V66.2392H134.114V43.4475H140.133V66.2392H138.316V68.9463H144.71V66.2392H142.84V26.6724H144.71V23.9653H138.316V26.6724Z" fill="#1C5F4E"/>
<path d="M156.129 26.6717H157.946V33.1333L151.927 51.1857V26.6717H153.744V23.9646H147.402V26.6717H149.22V66.2385H147.402V68.9456H153.744V66.2385H151.927V59.7794L157.946 41.727V66.2385H156.129V68.9456H162.52V66.2385H160.653V26.6717H162.52V23.9646H156.129V26.6717Z" fill="#1C5F4E"/>
<path d="M208.315 26.6722H210.132V33.1338L204.115 51.1862V26.6722H205.932V23.9651H199.591V26.6722H201.408V66.239H199.591V68.9461H205.932V66.239H204.115V59.7799L210.132 41.7275V66.239H208.315V68.9461H214.709V66.239H212.839V26.6722H214.709V23.9651H208.315V26.6722Z" fill="#1C5F4E"/>
<path d="M224.957 23.965H217.4V26.6721H219.22V66.2413H217.4V68.9485H223.744V66.2413H221.925V43.4471H224.959C225.708 43.4566 226.45 43.3132 227.141 43.0257C227.833 42.7381 228.458 42.3125 228.979 41.7749C229.519 41.2459 229.946 40.6122 230.233 39.9124C230.52 39.2127 230.662 38.4617 230.648 37.7055V29.7066C230.656 28.9559 230.512 28.2113 230.226 27.5173C229.939 26.8233 229.516 26.1941 228.981 25.6672C228.464 25.1217 227.839 24.689 227.147 24.3961C226.454 24.1032 225.709 23.9564 224.957 23.965ZM227.941 37.713C227.952 38.1142 227.88 38.5133 227.729 38.8853C227.579 39.2573 227.353 39.5943 227.066 39.8752C226.794 40.1581 226.466 40.3817 226.103 40.5318C225.74 40.682 225.35 40.7554 224.957 40.7475H221.922V26.6721H224.957C225.351 26.6651 225.742 26.7413 226.104 26.8954C226.467 27.0496 226.793 27.2784 227.061 27.5669C227.346 27.8451 227.57 28.1783 227.722 28.5462C227.873 28.914 227.948 29.3089 227.941 29.7066V37.713Z" fill="#1C5F4E"/>
<path d="M245.526 66.2414V29.7066C245.532 28.955 245.39 28.2097 245.107 27.5134C244.823 26.8171 244.406 26.1836 243.877 25.6494C243.348 25.1151 242.719 24.6906 242.026 24.4002C241.333 24.1099 240.589 23.9594 239.837 23.9575C239.083 23.936 238.333 24.0757 237.637 24.3671C236.94 24.6584 236.314 25.0948 235.8 25.6472C235.249 26.1665 234.813 26.7952 234.52 27.493C234.226 28.1908 234.082 28.9422 234.096 29.6991V66.2414H232.278V68.9485H238.62V66.2414H236.803V43.4471H242.819V66.2414H241.002V68.9485H247.396V66.2414H245.526ZM242.819 40.745H236.803V29.7066C236.812 28.9048 237.135 28.1386 237.702 27.5716C238.269 27.0046 239.035 26.6818 239.837 26.6721C240.228 26.6653 240.616 26.7421 240.975 26.8973C241.334 27.0525 241.656 27.2825 241.919 27.5719C242.208 27.8466 242.437 28.178 242.592 28.5453C242.747 28.9127 242.824 29.308 242.819 29.7066V40.745Z" fill="#1C5F4E"/>
<path d="M85.1769 85.8801C84.2372 85.9099 83.3237 85.5676 82.6348 84.9278C81.9862 84.277 81.6221 83.3956 81.6221 82.4769C81.6221 81.5581 81.9862 80.6767 82.6348 80.026C83.3265 79.3879 84.2414 79.0475 85.1819 79.0786C85.7815 79.0522 86.3753 79.2062 86.8864 79.5208C87.3975 79.8354 87.8025 80.2961 88.049 80.8433L86.5917 81.5332C86.4747 81.258 86.2813 81.022 86.0343 80.8533C85.7862 80.6743 85.4879 80.5781 85.1819 80.5784C84.9366 80.5706 84.6925 80.6152 84.4658 80.7091C84.2391 80.8031 84.035 80.9443 83.8671 81.1233C83.5322 81.4955 83.3468 81.9786 83.3468 82.4794C83.3468 82.9801 83.5322 83.4632 83.8671 83.8354C84.035 84.0144 84.2391 84.1556 84.4658 84.2496C84.6925 84.3436 84.9366 84.3881 85.1819 84.3803C85.4881 84.3818 85.7867 84.2855 86.0343 84.1054C86.2817 83.9372 86.4753 83.7011 86.5917 83.4255L88.049 84.1154C87.7963 84.6138 87.4256 85.0429 86.9692 85.3652C86.4422 85.724 85.814 85.9045 85.1769 85.8801Z" fill="#D3AF7B"/>
<path d="M102.732 85.7615H100.812L100.487 84.8166H97.9054L97.5804 85.7615H95.6582L98.1328 79.1899H100.26L102.732 85.7615ZM100.023 83.3368L99.1852 80.8647L98.3478 83.3368H100.023Z" fill="#D3AF7B"/>
<path d="M110.448 85.8811V84.3813C110.601 84.3882 110.754 84.3557 110.891 84.287C111.027 84.2183 111.145 84.1157 111.231 83.9889C111.419 83.7206 111.558 83.2323 111.648 82.5241L112.043 79.1946H116.94V85.7661H115.23V80.6669H113.555L113.32 82.6466C113.262 83.2009 113.135 83.7458 112.943 84.2688C112.813 84.651 112.589 84.9946 112.293 85.2687C112.058 85.4798 111.781 85.6398 111.481 85.7386C111.146 85.8391 110.798 85.8872 110.448 85.8811Z" fill="#D3AF7B"/>
<path d="M131.4 84.9238C130.707 85.5404 129.812 85.8811 128.884 85.8811C127.957 85.8811 127.061 85.5404 126.368 84.9238C125.727 84.272 125.368 83.3945 125.368 82.4804C125.368 81.5662 125.727 80.6887 126.368 80.037C127.061 79.4203 127.957 79.0796 128.884 79.0796C129.812 79.0796 130.707 79.4203 131.4 80.037C132.038 80.6906 132.394 81.5674 132.394 82.4804C132.394 83.3933 132.038 84.2702 131.4 84.9238ZM128.886 84.3813C129.127 84.3903 129.368 84.3466 129.591 84.2534C129.814 84.1602 130.014 84.0196 130.178 83.8414C130.496 83.4592 130.67 82.9777 130.67 82.4804C130.67 81.9831 130.496 81.5015 130.178 81.1193C130.008 80.9481 129.806 80.8122 129.584 80.7195C129.361 80.6268 129.123 80.579 128.882 80.579C128.641 80.579 128.402 80.6268 128.18 80.7195C127.957 80.8122 127.755 80.9481 127.586 81.1193C127.266 81.5008 127.091 81.9827 127.091 82.4804C127.091 82.978 127.266 83.4599 127.586 83.8414C127.75 84.0205 127.952 84.1615 128.176 84.2548C128.401 84.348 128.643 84.3912 128.886 84.3813Z" fill="#D3AF7B"/>
<path d="M146.955 85.761H145.26V83.1214H142.531V85.761H140.836V79.1895H142.531V81.6416H145.26V79.1895H146.955V85.761Z" fill="#D3AF7B"/>
<path d="M172.971 79.1899H174.666V85.7615H165.837V79.1899H167.532V84.2842H169.414V79.1899H171.109V84.2842H172.971V79.1899Z" fill="#D3AF7B"/>
<path d="M186.609 85.7613H184.912V80.667H183.069V79.1897H188.441V80.667H186.609V85.7613Z" fill="#D3AF7B"/>
<path d="M202.537 84.9228C201.844 85.5395 200.949 85.8802 200.021 85.8802C199.093 85.8802 198.198 85.5395 197.505 84.9228C196.864 84.271 196.505 83.3935 196.505 82.4794C196.505 81.5652 196.864 80.6877 197.505 80.036C198.198 79.4193 199.093 79.0786 200.021 79.0786C200.949 79.0786 201.844 79.4193 202.537 80.036C203.174 80.6896 203.531 81.5664 203.531 82.4794C203.531 83.3924 203.174 84.2692 202.537 84.9228ZM200.037 84.3804C200.278 84.3891 200.519 84.3454 200.741 84.2521C200.964 84.1589 201.164 84.0185 201.327 83.8404C201.645 83.4583 201.819 82.9767 201.819 82.4794C201.819 81.9821 201.645 81.5005 201.327 81.1183C201.157 80.9471 200.956 80.8113 200.733 80.7185C200.511 80.6258 200.272 80.5781 200.031 80.5781C199.79 80.5781 199.551 80.6258 199.329 80.7185C199.106 80.8113 198.905 80.9471 198.735 81.1183C198.417 81.5005 198.243 81.9821 198.243 82.4794C198.243 82.9767 198.417 83.4583 198.735 83.8404C198.898 84.0179 199.098 84.158 199.321 84.2512C199.543 84.3444 199.784 84.3884 200.025 84.3804H200.037Z" fill="#D3AF7B"/>
<path d="M213.671 85.7614H211.966V79.1899H215.265C215.573 79.1737 215.88 79.2208 216.169 79.3283C216.457 79.4358 216.721 79.6014 216.943 79.8148C217.335 80.2385 217.553 80.7946 217.553 81.3721C217.553 81.9495 217.335 82.5056 216.943 82.9293C216.721 83.1427 216.457 83.3083 216.169 83.4158C215.88 83.5233 215.573 83.5704 215.265 83.5542H213.671V85.7614ZM215.04 82.077C215.245 82.0848 215.446 82.0182 215.605 81.8895C215.679 81.8271 215.738 81.7483 215.777 81.6594C215.815 81.5705 215.833 81.4738 215.828 81.377C215.833 81.2787 215.816 81.1805 215.777 81.0899C215.739 80.9993 215.68 80.9188 215.605 80.8546C215.446 80.7259 215.245 80.6593 215.04 80.6672H213.671V82.077H215.04Z" fill="#D3AF7B"/>
<path d="M174.33 23.9417V26.7066H176.147V66.2056H174.33V68.9127H180.674V66.2056H178.867V26.7066L183.944 45.7209H185.653H187.362L192.276 26.7066V66.2308H190.353V68.9127H196.976V66.2308H195.053V26.7066H196.976V23.9292H190.353L185.653 42.9436L180.739 23.9292L174.33 23.9417Z" fill="#1C5F4E"/>
<g clip-path="url(#clip1_81_491)">
<path d="M16.2779 25.0855L16.4155 25.0484C19.7431 24.1525 22.3881 21.6283 23.4384 18.3461L28.2823 15.8188C28.1622 22.9062 22.7598 28.7835 15.7077 29.4989L13.54 29.7188L16.2779 25.0855Z" fill="#D3AF7B"/>
<path d="M12.9082 33.5095L14.46 33.349C24.0798 32.3538 31.5001 24.43 31.8626 14.7656L36.4958 14.1338L36.3748 16.0699C35.7082 26.7368 27.688 35.4923 17.1203 37.0898L12.9082 33.5095Z" fill="#D3AF7B"/>
<path d="M20.4902 40.0384C31.9558 36.5489 39.78 25.9075 39.6552 13.9233L44.0779 14.5552L43.9843 16.4641C43.4016 28.3522 35.831 38.7656 24.7023 42.9869L20.4902 40.0384Z" fill="#D3AF7B"/>
<path d="M28.0713 45.3034C39.4116 39.5043 46.8465 27.9179 47.2362 15.1868L51.6589 16.8716L51.6459 17.1328C51.0002 30.0461 43.6589 41.6851 32.2834 47.8306L28.0713 45.3034Z" fill="#D3AF7B"/>
<path d="M12.9082 33.5095L17.1203 37.0898V58.7822H12.9082V33.5095Z" fill="#D3AF7B"/>
<path d="M20.4902 40.0383L24.7023 42.9868V65.7322L20.4902 65.6637V40.0383Z" fill="#D3AF7B"/>
<path d="M28.0713 45.3035L32.2834 47.8307V71.1395H28.0713V45.3035Z" fill="#D3AF7B"/>
<path d="M35.6533 49.3053L38.1806 47.8311L40.2866 49.3053V74.9307H35.6533V49.3053Z" fill="#D3AF7B"/>
<path d="M43.2356 47.199C42.4046 46.922 41.6495 46.4553 41.0301 45.836L40.9189 45.7248L44.2886 43.1975C45.2648 44.0342 46.3719 44.7048 47.5656 45.1823L47.8689 45.3036V72.6138L43.2356 72.7633V47.199Z" fill="#D3AF7B"/>
<path d="M51.0246 42.7769L50.9147 42.7516C49.1849 42.3524 47.5669 41.5693 46.1807 40.4603L48.7079 37.0906C50.7948 38.4818 53.1279 39.4621 55.5823 39.9788L55.8684 40.0391V68.3412H51.0246V42.7769Z" fill="#D3AF7B"/>
<path d="M58.822 36.4572C55.968 36.5931 53.1596 35.7036 50.9043 33.9495L50.6084 33.7194L52.2932 29.9285C54.7714 31.7182 57.6993 32.7819 60.7484 33.0001L63.4552 33.1938V61.3087H58.822V36.4572Z" fill="#D3AF7B"/>
<path d="M63.4518 29.7175L60.7725 29.7992C57.9356 29.8857 55.2093 28.6965 53.3428 26.5585L54.1852 22.1357C56.7306 24.6861 60.2444 26.0274 63.8418 25.8218L65.5578 25.7237L64.926 28.251L63.4518 29.7175Z" fill="#D3AF7B"/>
</g>
<path d="M67.9804 41.0942C67.9804 57.5568 54.6349 70.9025 38.1723 70.9025C21.7098 70.9025 8.36426 57.5568 8.36426 41.0942C8.36426 24.6315 21.7098 11.2859 38.1723 11.2859C54.6349 11.2859 67.9804 24.6315 67.9804 41.0942ZM11.5054 41.0942C11.5054 55.822 23.4446 67.7613 38.1723 67.7613C52.9001 67.7613 64.8393 55.822 64.8393 41.0942C64.8393 26.3663 52.9001 14.427 38.1723 14.427C23.4446 14.427 11.5054 26.3663 11.5054 41.0942Z" fill="#D3AF7B"/>
<path d="M52.3653 6.56561C46.6353 4.12278 40.3885 3.14088 34.1854 3.70803C27.9823 4.27518 22.017 6.37363 16.825 9.81506C11.633 13.2565 7.37673 17.9332 4.43812 23.4255C1.49951 28.9178 -0.0294584 35.0537 -0.0115635 41.2827C0.00633143 47.5117 1.57053 53.6388 4.54065 59.1141C7.51077 64.5894 11.7939 69.2416 17.0056 72.6532C22.2172 76.0647 28.1944 78.1288 34.4007 78.6603C40.6069 79.1918 46.8481 78.1741 52.5639 75.6983L51.2728 72.7175C46.0505 74.9794 40.3483 75.9093 34.6779 75.4237C29.0075 74.9381 23.5464 73.0522 18.7847 69.9352C14.023 66.8182 10.1097 62.5677 7.39604 57.5652C4.68237 52.5626 3.25323 46.9646 3.23688 41.2734C3.22053 35.5822 4.61748 29.9761 7.30236 24.958C9.98725 19.9399 13.876 15.667 18.6198 12.5228C23.3635 9.37847 28.8136 7.4612 34.4811 6.94302C40.1486 6.42484 45.8561 7.32196 51.0914 9.55387L52.3653 6.56561Z" fill="#D3AF7B"/>
<rect x="36.5615" y="0.00585938" width="3.70587" height="13.3734" fill="#D3AF7B"/>
<rect x="36.5615" y="69.2915" width="3.06137" height="14.6625" fill="#D3AF7B"/>
<rect x="19.1592" y="82.6621" width="37.8643" height="3.22252" fill="#D3AF7B"/>
</g>
<defs>
<clipPath id="clip0_81_491">
<rect width="249.962" height="85.8801" fill="white"/>
</clipPath>
<clipPath id="clip1_81_491">
<rect x="11.4316" y="14.3438" width="53.4934" height="53.4938" rx="26.7467" fill="white"/>
</clipPath>
</defs>
</svg>
