<svg width="23" height="23" viewBox="0 0 23 23" fill="none" xmlns="http://www.w3.org/2000/svg">
<path fill-rule="evenodd" clip-rule="evenodd" d="M16.755 14.0871C17.8828 14.7139 19.0113 15.3407 20.139 15.9675C20.6244 16.237 20.8373 16.8089 20.6462 17.3305C19.6759 19.9813 16.8341 21.3805 14.1602 20.4046C8.68491 18.4061 4.6264 14.3474 2.6277 8.87205C1.65174 6.19817 3.051 3.35632 5.70178 2.38605C6.22339 2.19494 6.7953 2.40787 7.06548 2.8933C7.69158 4.02109 8.31842 5.14953 8.94514 6.27726C9.23893 6.80632 9.16988 7.43432 8.76777 7.88611C8.24116 8.47869 7.71466 9.07113 7.18806 9.66309C8.31214 12.4004 10.6318 14.7201 13.3691 15.8442C13.9611 15.3176 14.5535 14.7911 15.1461 14.2645C15.5986 13.8624 16.226 13.7933 16.755 14.0871L16.755 14.0871Z" fill="#F5D07B"/>
</svg>
