<svg width="18" height="18" viewBox="0 0 18 18" fill="none" xmlns="http://www.w3.org/2000/svg">
<path fill-rule="evenodd" clip-rule="evenodd" d="M4.15291 8.53654C4.15291 6.1155 6.1155 4.15291 8.53654 4.15291C10.9575 4.15291 12.9201 6.1155 12.9201 8.53654C12.9201 10.9575 10.9575 12.9201 8.53654 12.9201C6.1155 12.9201 4.15291 10.9575 4.15291 8.53654ZM8.53654 11.382C6.96498 11.382 5.69101 10.1081 5.69101 8.53654C5.69101 6.96499 6.96498 5.69102 8.53654 5.69102C10.1081 5.69102 11.382 6.96499 11.382 8.53654C11.382 10.1081 10.1081 11.382 8.53654 11.382Z" fill="#66A38B"/>
<path d="M13.0933 5.00408C13.6591 5.00408 14.1177 4.54547 14.1177 3.97972C14.1177 3.41396 13.6591 2.95532 13.0933 2.95532C12.5276 2.95532 12.069 3.41396 12.069 3.97972C12.069 4.54547 12.5276 5.00408 13.0933 5.00408Z" fill="#66A38B"/>
<path fill-rule="evenodd" clip-rule="evenodd" d="M8.53654 0C6.21814 0 5.92744 0.00982688 5.01693 0.0513709C4.10831 0.0928132 3.48776 0.237133 2.94478 0.448173C2.38342 0.666296 1.90736 0.958188 1.43276 1.43276C0.958188 1.90736 0.666296 2.38342 0.448173 2.94478C0.237133 3.48776 0.0928132 4.10831 0.0513709 5.01693C0.00982688 5.92744 0 6.21814 0 8.53654C0 10.8549 0.00982688 11.1456 0.0513709 12.0561C0.0928132 12.9647 0.237133 13.5853 0.448173 14.1283C0.666296 14.6896 0.958188 15.1657 1.43276 15.6403C1.90736 16.1149 2.38342 16.4068 2.94478 16.6249C3.48776 16.8359 4.10831 16.9802 5.01693 17.0217C5.92744 17.0632 6.21814 17.073 8.53654 17.073C10.8549 17.073 11.1456 17.0632 12.0561 17.0217C12.9647 16.9802 13.5853 16.8359 14.1283 16.6249C14.6896 16.4068 15.1657 16.1149 15.6403 15.6403C16.1149 15.1657 16.4068 14.6896 16.6249 14.1283C16.8359 13.5853 16.9802 12.9647 17.0217 12.0561C17.0632 11.1456 17.073 10.8549 17.073 8.53654C17.073 6.21814 17.0632 5.92744 17.0217 5.01693C16.9802 4.10831 16.8359 3.48776 16.6249 2.94478C16.4068 2.38342 16.1149 1.90736 15.6403 1.43276C15.1657 0.958188 14.6896 0.666296 14.1283 0.448173C13.5853 0.237133 12.9647 0.0928132 12.0561 0.0513709C11.1456 0.00982688 10.8549 0 8.53654 0ZM8.53654 1.53811C10.8159 1.53811 11.0859 1.54682 11.986 1.58789C12.8183 1.62584 13.2703 1.76491 13.5711 1.88181C13.9696 2.03667 14.254 2.22165 14.5527 2.52039C14.8514 2.81909 15.0364 3.10346 15.1912 3.50193C15.3081 3.80273 15.4472 4.25473 15.4852 5.08704C15.5262 5.98718 15.5349 6.25718 15.5349 8.53654C15.5349 10.8159 15.5262 11.0859 15.4852 11.986C15.4472 12.8183 15.3081 13.2703 15.1912 13.5711C15.0364 13.9696 14.8514 14.254 14.5527 14.5527C14.254 14.8514 13.9696 15.0364 13.5711 15.1912C13.2703 15.3081 12.8183 15.4472 11.986 15.4852C11.086 15.5262 10.816 15.5349 8.53654 15.5349C6.25701 15.5349 5.98708 15.5262 5.08704 15.4852C4.25473 15.4472 3.80273 15.3081 3.50193 15.1912C3.10347 15.0364 2.8191 14.8514 2.52039 14.5527C2.22169 14.254 2.03667 13.9696 1.88181 13.5711C1.76491 13.2703 1.62584 12.8183 1.58789 11.986C1.54682 11.0859 1.53811 10.8159 1.53811 8.53654C1.53811 6.25718 1.54682 5.98718 1.58789 5.08704C1.62584 4.25473 1.76491 3.80273 1.88181 3.50193C2.03667 3.10346 2.22166 2.81909 2.52039 2.52039C2.8191 2.22165 3.10347 2.03667 3.50193 1.88181C3.80273 1.76491 4.25473 1.62584 5.08704 1.58789C5.98718 1.54682 6.25718 1.53811 8.53654 1.53811Z" fill="#66A38B"/>
</svg>
