<svg width="18" height="18" viewBox="0 0 18 18" fill="none" xmlns="http://www.w3.org/2000/svg">
<g clip-path="url(#clip0_81_561)">
<path d="M9.11295 17.073H9.82385C13.6831 17.073 15.613 17.073 16.8115 15.8745C18.01 14.676 17.9998 12.7467 17.9998 8.89712V8.17595C17.9998 4.32698 17.9998 2.39706 16.8115 1.19853C15.6232 3.43451e-06 13.6831 0 9.82385 0H9.11295C5.25307 0 3.32381 3.43451e-06 2.12529 1.19853C0.926757 2.39706 0.926758 4.32562 0.926758 8.17595V8.89712C0.926758 12.7467 0.926757 14.676 2.12529 15.8745C3.32381 17.073 5.25307 17.073 9.11295 17.073Z" fill="#66A38B"/>
<path d="M10.0882 12.3097C6.23861 12.3097 3.90235 9.63876 3.81152 5.20044H5.76126C5.82205 8.46072 7.30534 9.84431 8.44243 10.1263V5.20044H10.3116V8.01339C11.4083 7.89184 12.5557 6.61203 12.9422 5.20044H14.7799C14.4856 6.93712 13.2365 8.2169 12.3528 8.7448C13.2365 9.17162 14.6584 10.2889 15.2068 12.3097H13.186C12.7592 10.9588 11.7129 9.9126 10.3116 9.77055V12.3097H10.0882Z" fill="white"/>
</g>
<defs>
<clipPath id="clip0_81_561">
<rect width="17.073" height="17.073" fill="white" transform="translate(0.926758)"/>
</clipPath>
</defs>
</svg>
